<?xml version="1.0" encoding="UTF-8"?> <svg xmlns="http://www.w3.org/2000/svg" width="112" height="21" fill="none" viewBox="0 0 112 21"> <path fill="#157D40" fill-rule="evenodd" d="M10.216 20.702c5.643 0 10.216-4.574 10.216-10.216C20.432 4.844 15.86.27 10.216.27 4.573.27 0 4.844 0 10.486c0 5.642 4.573 10.216 10.216 10.216z" clip-rule="evenodd"></path> <path fill="#FFFFFE" fill-rule="evenodd" d="M14.49 11.453a12.276 12.276 0 002.208-3.735l-1.255-.477c-.792 2.162-1.983 3.627-3.421 4.83V4.657h-1.347v10.62h1.347v-1.566a15.28 15.28 0 001.492-1.258l1.234 2.162c.307.534.722.82 1.336.82.35 0 .544-.118.625-.157l-2.22-3.825zm-9.424.062c0-1.747.873-2.657 2.21-2.657 1.007 0 1.664.393 1.88.534.166-.158.296-.45.296-.747 0-.5-.565-1.034-2.23-1.034-1.94 0-3.567 1.354-3.567 3.926 0 2.505 1.47 3.904 3.41 3.904 1.164 0 2.096-.382 2.366-.534V13.51c-.297.213-1.256.673-2.14.673-1.27 0-2.225-.898-2.225-2.667z" clip-rule="evenodd"></path> <path fill="#0A0B09" fill-rule="evenodd" d="M59.228 6.96v8.51c0 1.685 1.047 2.583 2.598 2.583.739 0 1.397-.187 1.546-.24v-1.412c-.138.036-.584.174-1.185.174-.914 0-1.322-.563-1.322-1.311v-4.819h2.273v-1.37h-2.273v-.899c0-.86-.51-1.295-1.175-1.295a1.013 1.013 0 00-.462.08zm32.993 3.268v-.038c0-.86-.465-1.296-1.112-1.296-.148 0-.313.027-.471.085v8.887h1.634V11.79c.488-.664 1.47-1.435 2.35-1.435.959 0 1.43.621 1.43 1.525v5.986h1.64V11.79c.562-.76 1.47-1.435 2.344-1.435.965 0 1.436.621 1.436 1.525v5.986h1.635V11.79c0-1.658-.749-2.896-2.77-2.896-1.237 0-2.145.664-2.889 1.472-.244-.585-.811-1.472-2.531-1.472-1.192 0-2.032.622-2.696 1.334zm-5.727-.038c0-.86-.493-1.296-1.14-1.296-.148 0-.313.027-.472.085v8.887h1.635v-5.19c.465-1.1 1.572-2.12 3.025-2.12V8.9c-1.56 0-2.452.748-3.048 1.87v-.58zm-52.192 0c0-.86-.488-1.296-1.136-1.296-.15 0-.314.027-.473.085v8.887h1.636v-5.19c.462-1.1 1.572-2.12 3.023-2.12V8.9c-1.562 0-2.45.748-3.044 1.87v-.58h-.006zm38.06 3.198c1.061-1.2 2.009-2.618 2.684-4.366l-1.526-.564c-.965 2.534-2.407 4.245-4.155 5.652V5.436h-1.634v12.43h1.634v-1.832a18.77 18.77 0 001.81-1.472l1.499 2.534c.375.622.874.961 1.623.961.42 0 .664-.138.755-.185l-2.69-4.484zm-46.4.075c0-2.046 1.063-3.108 2.683-3.108 1.221 0 2.024.462 2.284.621.202-.185.361-.526.361-.871 0-.585-.685-1.211-2.709-1.211-2.359 0-4.329 1.583-4.329 4.595 0 2.933 1.784 4.568 4.143 4.568 1.413 0 2.545-.45 2.869-.62v-1.643c-.361.25-1.525.787-2.598.787-1.54 0-2.704-1.047-2.704-3.118zm25.978-2.625a3.74 3.74 0 00-1.822-.489c-1.51 0-2.561 1.047-2.561 3.22 0 1.934.972 3.006 3.06 3.006.488 0 .934-.074 1.323-.185v-5.552zm1.62 6.769c-.335.084-1.397.45-2.949.45-3.383 0-4.69-1.885-4.69-4.42 0-3.208 1.821-4.743 3.883-4.743 1.148 0 1.907.361 2.12.462v-3.92h1.62v12.17h.016zM39.147 12.91c.075-1.296.914-2.619 2.72-2.619.813 0 1.296.462 1.296 1.026 0 1.258-2.284 1.593-4.016 1.593zm.011 1.275c2.449 0 5.668-.372 5.668-2.948 0-1.286-1.073-2.348-2.884-2.348-3.044 0-4.505 2.136-4.505 4.717 0 2.47 1.599 4.441 4.44 4.441 1.584 0 2.774-.436 2.774-1.333 0-.425-.276-.76-.335-.813-.165.1-1.01.686-2.332.686-1.865-.006-2.64-1.202-2.826-2.402zm16.4 3.681h1.646V9.08h-1.647v8.786zm.839-10.56a1.043 1.043 0 01-1.047-1.037c0-.573.473-1.046 1.047-1.046s1.035.473 1.035 1.046c-.015.574-.462 1.037-1.035 1.037zm53.595 8.138c-.738.76-1.487 1.137-2.447 1.137-.925 0-1.424-.6-1.424-1.221 0-.898.721-1.658 3.859-1.961v2.045h.012zm-1.913-6.55c-2.094 0-2.906.563-2.906 1.211 0 .489.289.797.363.871.278-.175 1.061-.621 2.31-.621 1.584 0 2.146.749 2.146 1.562v.239c-3.667.388-5.54 1.073-5.54 3.272 0 1.498 1.124 2.619 2.702 2.619 1.583 0 2.486-.823 2.883-1.184v1.009h1.6v-6.019c-.005-1.95-1.418-2.96-3.558-2.96zm-26.869 6.55c-.738.76-1.487 1.137-2.446 1.137-.925 0-1.425-.6-1.425-1.221 0-.898.721-1.658 3.854-1.961v2.045h.017zm-1.912-6.55c-2.1 0-2.907.563-2.907 1.211 0 .489.29.797.364.871.278-.175 1.061-.621 2.31-.621 1.583 0 2.145.749 2.145 1.562v.239c-3.672.388-5.54 1.073-5.54 3.272 0 1.498 1.119 2.619 2.697 2.619 1.583 0 2.486-.823 2.889-1.184v1.009h1.594v-6.019c.006-1.95-1.407-2.96-3.552-2.96z" clip-rule="evenodd"></path> </svg> 