<?xml version="1.0" encoding="UTF-8"?> <svg xmlns="http://www.w3.org/2000/svg" width="41" height="12" viewBox="0 0 41 12"> <path fill="#0077C5" fill-rule="evenodd" d="M23.008 3.554v4.55c0 .972.223 2.186 1.546 2.186 1.25 0 1.87-1.032 1.922-2.079l.004-.142V3.554h2.06v8.207h-1.958v-1.315h-.035c-.36.82-1.341 1.554-2.559 1.554-2.078 0-2.982-1.533-3.04-3.15l-.003-.167v-5.13h2.063zm9.707 0v8.207h-2.063V3.554h2.063zm8.131-.005v1.819h-2.312v6.393h-2.063V5.368h-2.312V3.549h6.687zm-21.338 0v1.819h-2.312v6.393h-2.06V5.368h-2.313V3.549h6.685zm-17.445.005v8.207H0V3.554h2.063zm6.666-.239c2.15 0 3.041 1.64 3.041 3.317v5.13H9.71V7.213c0-.975-.224-2.19-1.549-2.19-1.304 0-1.923 1.129-1.923 2.222v4.515H4.175V3.554h1.958v1.315h.035C6.53 4.05 7.51 3.315 8.73 3.315zM37.503 0c.689 0 1.245.556 1.245 1.24 0 .685-.556 1.239-1.245 1.239a1.242 1.242 0 0 1-1.246-1.24c0-.683.559-1.239 1.246-1.239zM16.164 0c.69 0 1.248.556 1.248 1.24 0 .685-.558 1.239-1.248 1.239a1.242 1.242 0 0 1-1.245-1.24c0-.683.558-1.239 1.245-1.239z"></path> </svg> 