<?xml version="1.0" encoding="UTF-8"?> <svg xmlns="http://www.w3.org/2000/svg" width="78" height="26" viewBox="0 0 78 26" fill="none"> <path fill-rule="evenodd" clip-rule="evenodd" d="M77.4526 12.6552V15.1226L74.7559 15.1226V20.0185C74.7559 20.9485 75.0759 21.5811 75.9771 21.5811C76.546 21.5811 77.0207 21.4535 77.3295 21.351L77.4046 23.7661C76.918 23.9513 76.0995 24.083 75.4518 24.083C72.1349 24.083 71.715 21.7647 71.715 20.0411V15.1226H69.8275V12.6552H71.715V9.53174H74.7559V12.6552H77.4526ZM55.156 23.8314H52.0699V12.6552H55.156V23.8314ZM45.0126 12.3406C43.4739 12.3406 42.3046 13.1506 41.518 14.3618C40.9768 13.4578 39.8562 12.3406 38.0233 12.3406C36.4811 12.3406 35.1917 13.5136 34.5994 14.3554H34.5533V12.6552H31.6023V23.8314H34.688V17.7039C34.688 16.3466 35.4129 14.9771 36.9085 14.9771C38.5379 14.9771 38.8102 16.4754 38.8102 17.1196V23.8314H41.8962V17.7489C41.8962 16.3693 42.6793 14.9771 44.1903 14.9771C45.6481 14.9771 46.0379 16.256 46.0379 17.659V23.8314H49.1236V16.8949C49.1236 14.7939 48.092 12.3406 45.0126 12.3406ZM60.7461 14.3554C61.359 13.5114 62.5439 12.3406 64.1599 12.3406C67.2393 12.3406 68.2128 14.7939 68.2128 16.8949V23.8314H65.1271V17.659C65.1271 16.3195 64.7246 14.9771 63.228 14.9771C61.6325 14.9771 60.8353 16.3906 60.8353 17.7039V23.8314H57.7493V12.6552H60.7004V14.3554H60.7461Z" fill="black"></path> <circle cx="13.5473" cy="13" r="13" fill="#00A6A4"></circle> <path fill-rule="evenodd" clip-rule="evenodd" d="M6.82089 15.2187C6.82089 10.5118 12.6913 4.46921 13.5473 3.6106C14.4034 4.46921 20.2738 10.5118 20.2738 15.2187C20.2738 18.0405 18.3797 19.274 15.3603 21.2404C14.7939 21.6092 14.1878 22.0039 13.5473 22.4397C12.9068 22.0039 12.3007 21.6092 11.7343 21.2404C8.71498 19.274 6.82089 18.0405 6.82089 15.2187ZM12.7589 19.6667C12.9688 19.8034 13.1838 19.9439 13.4002 20.0857V6.52802C11.2199 9.0296 8.69858 12.6196 8.69858 15.2187C8.69858 16.8452 9.52048 17.5576 12.7589 19.6667Z" fill="white"></path> <path fill-rule="evenodd" clip-rule="evenodd" d="M42.7451 2.96002C43.2195 2.96002 43.6042 2.57523 43.6042 2.10092C43.6042 1.62662 43.2195 1.24194 42.7451 1.24194C42.2708 1.24194 41.8862 1.62662 41.8862 2.10092C41.8862 2.57523 42.2708 2.96002 42.7451 2.96002ZM35.8545 4.61673C36.1032 4.04834 36.7785 3.53873 37.6193 3.53873C39.1004 3.53873 39.7162 4.67603 39.7162 5.83694V9.39093H38.2948V6.23962C38.2948 5.56463 38.1407 4.72323 37.2284 4.72323C36.3285 4.72323 35.9018 5.50543 35.9018 6.26324V9.39093H34.4806V3.70483H35.8307V4.61673H35.8545ZM33.0238 9.39093H31.6023V3.70483H33.0238V9.39093ZM58.3118 2.10092C58.3118 2.57523 57.9273 2.96002 57.453 2.96002C56.9784 2.96002 56.5939 2.57523 56.5939 2.10092C56.5939 1.62662 56.9784 1.24194 57.453 1.24194C57.9273 1.24194 58.3118 1.62662 58.3118 2.10092ZM40.4405 4.96094H42.0343V9.39093H43.4558V4.96094H45.0496V3.70123H40.4405V4.96094ZM48.5273 8.37213C49.4272 8.37213 49.8539 7.59024 49.8539 6.83203V3.70484H51.2754V9.39093H49.925V8.47852H49.9012C49.6527 9.04743 48.9773 9.55664 48.1364 9.55664C46.6552 9.55664 46.0395 8.41974 46.0395 7.25842V3.70483H47.461V6.85574C47.461 7.53104 47.6151 8.37213 48.5273 8.37213ZM55.1482 3.70123V4.96094H56.7422V9.39093H58.1637V4.96094H59.7575V3.70123H55.1482ZM54.1524 9.39093H52.7308V3.70483H54.1524V9.39093Z" fill="black"></path> </svg> 