<?xml version="1.0" encoding="UTF-8"?> <svg xmlns="http://www.w3.org/2000/svg" width="48" height="16" viewBox="0 0 48 16"> <g fill="none" fill-rule="evenodd"> <path fill="#000" d="M47.326 8.418V6.899h-1.659V4.977h-1.871v1.922h-1.162v1.519h1.162v3.027c0 1.06.258 2.487 2.299 2.487.399 0 .902-.081 1.202-.195l-.046-1.486c-.19.063-.482.141-.833.141-.554 0-.751-.389-.751-.961V8.418h1.659zm-8.18-1.712c-.994 0-1.723.72-2.101 1.24h-.028V6.899h-1.816v6.878H37.1v-3.771c0-.808.491-1.678 1.473-1.678.921 0 1.169.826 1.169 1.651v3.798h1.898V9.509c0-1.293-.599-2.803-2.494-2.803zm-7.44 7.071h1.899V6.899h-1.899v6.878zm-4.343-7.071c-.947 0-1.666.498-2.15 1.244-.333-.557-1.023-1.244-2.151-1.244-.949 0-1.742.722-2.107 1.24h-.028V6.899h-1.816v6.878h1.899v-3.771c0-.835.446-1.678 1.366-1.678 1.003 0 1.17.922 1.17 1.319v4.13h1.899v-3.743c0-.849.482-1.706 1.412-1.706.897 0 1.137.787 1.137 1.651v3.798h1.899V9.509c0-1.293-.635-2.803-2.53-2.803z"></path> <path fill="#00A6A4" d="M0 8a8 8 0 1 1 16 0A8 8 0 0 1 0 8"></path> <path fill="#FFFFFE" d="M7.91 12.361l-.395-.258c-1.993-1.298-2.499-1.737-2.499-2.738 0-1.599 1.552-3.808 2.894-5.348v8.344zM8 2.222c-.527.528-4.139 4.247-4.139 7.143 0 2.063 1.644 2.746 4.139 4.444 2.496-1.698 4.139-2.381 4.139-4.444 0-2.896-3.612-6.615-4.139-7.143z"></path> </g> </svg> 